Furthur
2012-07-13
MCU Park Brooklyn, NY

MSR > CDR > TLH > FLAC 8 > YOU

Disc 1 - Set 1:
01. Hey Pocky Way
02. Greatest Story Ever Told
03. Crazy Fingers
04. Ballad Of A Thin Man
05. Built To Last
06. Let It Ride
07. Jack Straw

Disc 2 - Set 2:
01. Scarlet Begonias > 
02. Fire On The Mountain, 
03. Weather Report Suite Part 1 > 
04. Let It Grow

Disc 3 - Set 2:
01. Dark Star
02. Unbroken Chain
03. Death Don't Have No Mercy
04. Not Fade Away
05. Ripple

    length     expanded size    cdr  WAVE problems  fmt   ratio  filename
    10:53.33      115266860 B   ---   --   ---xx   flac  0.5212  furthur2012-07-13d1t01.flac
     7:31.39       79648172 B   ---   --   ---xx   flac  0.5688  furthur2012-07-13d1t02.flac
     9:39.51      102255596 B   ---   --   ---xx   flac  0.5155  furthur2012-07-13d1t03.flac
     9:47.42      103645628 B   ---   --   ---xx   flac  0.5061  furthur2012-07-13d1t04.flac
     5:50.27       61803548 B   ---   --   ---xx   flac  0.5592  furthur2012-07-13d1t05.flac
     6:25.00       67914044 B   ---   --   ---xx   flac  0.5635  furthur2012-07-13d1t06.flac
     9:11.20       97243484 B   ---   --   ---xx   flac  0.5532  furthur2012-07-13d1t07.flac
    13:15.33      140315660 B   ---   --   ---xx   flac  0.5214  furthur2012-07-13d2t01.flac
    10:12.60      108097964 B   ---   --   ---xx   flac  0.5386  furthur2012-07-13d2t02.flac
    21:35.24      228494492 B   ---   --   ---xx   flac  0.5164  furthur2012-07-13d2t03.flac
    23:54.63      253105820 B   ---   --   ---xx   flac  0.4903  furthur2012-07-13d2t04.flac
    17:10.13      181722620 B   ---   --   ---xx   flac  0.5336  furthur2012-07-13d3t01.flac
     9:30.26      100609196 B   ---   --   ---xx   flac  0.5020  furthur2012-07-13d3t02.flac
     7:08.15       75534524 B   ---   --   ---xx   flac  0.5077  furthur2012-07-13d3t03.flac
     1:21.24       14344892 B   ---   --   ---xx   flac  0.4026  furthur2012-07-13d3t04.flac
     5:26.64       57656972 B   ---   --   ---xx   flac  0.4732  furthur2012-07-13d3t05.flac
   168:54.09     1787659472 B                            0.5200  (16 files)

No errors occured.


furthur2012-07-13d1t01.flac:041ada458deeab9b6d33ebdcf962ddaa
furthur2012-07-13d1t02.flac:bfee62cd686dbb4263cfdcf9caba36a8
furthur2012-07-13d1t03.flac:568bc12d447ae1c035b233170cd4cfbb
furthur2012-07-13d1t04.flac:edb361d1c48f3ea4fcc408bb25446fa3
furthur2012-07-13d1t05.flac:80d75a6776728a91727d6b158a2f3168
furthur2012-07-13d1t06.flac:ce18eae4f2c42cf478cd4150fc9b4c9d
furthur2012-07-13d1t07.flac:ea205a77ef14d3a53ce1f0551f66a01e
furthur2012-07-13d2t01.flac:372bec94365c55c166c4d1b012df0ef9
furthur2012-07-13d2t02.flac:941ddc83ecfec850e62ef68e24b4c218
furthur2012-07-13d2t03.flac:726cceef0247235a17f1f53d9d8738d5
furthur2012-07-13d2t04.flac:b427c2e6aed1b3d145b83555b4945a91
furthur2012-07-13d3t01.flac:725fc00a73008410525c395ae031380b
furthur2012-07-13d3t02.flac:165f8ba15e2005bffb3989a331cb4109
furthur2012-07-13d3t03.flac:008c652e5680d8e5bff44038a4114981
furthur2012-07-13d3t04.flac:d87d6b92094c50f9f127f3c46973fb96
furthur2012-07-13d3t05.flac:4902b7a1180be9d691fc4c2acdfdd76f